<svg width="34.406250" height="34.406250" viewBox="0 0 34.4062 34.4062" fill="none" xmlns="http://www.w3.org/2000/svg" xmlns:xlink="http://www.w3.org/1999/xlink">
	<desc>
			Created with Pixso.
	</desc>
	<defs/>
	<path id="Vector" d="M19.84 17.2C19.84 18.66 18.66 19.84 17.2 19.84C15.74 19.84 14.55 18.66 14.55 17.2C14.55 15.74 15.74 14.55 17.2 14.55C18.66 14.55 19.84 15.74 19.84 17.2Z" fill="#FFFFFF" fill-opacity="1.000000" fill-rule="nonzero"/>
	<path id="Vector" d="M17.2 0C7.67 0 0 7.67 0 17.2C0 26.73 7.67 34.4 17.2 34.4C26.73 34.4 34.4 26.73 34.4 17.2C34.4 7.67 26.73 0 17.2 0ZM7.93 9.26C7.93 8.46 8.46 7.93 9.26 7.93C10.05 7.93 10.58 8.46 10.58 9.26C10.58 10.05 10.05 10.58 9.26 10.58C8.46 10.58 7.93 10.05 7.93 9.26ZM17.33 23.95L10.05 25.93C9.13 26.2 8.2 25.27 8.46 24.34L10.45 17.07C11.38 13.89 13.76 11.38 16.93 10.58L24.21 8.6C25.14 8.33 26.06 9.26 25.8 10.18L23.81 17.46C23.02 20.51 20.51 23.02 17.33 23.95ZM25.14 26.46C24.34 26.46 23.81 25.93 23.81 25.14C23.81 24.34 24.34 23.81 25.14 23.81C25.93 23.81 26.46 24.34 26.46 25.14C26.46 25.93 25.93 26.46 25.14 26.46Z" fill="#FFFFFF" fill-opacity="1.000000" fill-rule="nonzero"/>
</svg>
