<svg width="89.000000" height="13.000000" viewBox="0 0 89 13" fill="none" xmlns="http://www.w3.org/2000/svg" xmlns:xlink="http://www.w3.org/1999/xlink">
	<desc>
			Created with Pixso.
	</desc>
	<defs/>
	<path id="Vector" d="M12.97 4.91C12.92 4.73 12.77 4.61 12.6 4.58L8.67 3.98L6.91 0.24C6.76 -0.09 6.24 -0.09 6.08 0.24L4.32 3.98L0.39 4.58C0.22 4.61 0.07 4.73 0.02 4.91C-0.04 5.09 0.01 5.28 0.14 5.41L2.98 8.32L2.31 12.43C2.28 12.61 2.35 12.79 2.49 12.9C2.64 13.01 2.82 13.03 2.98 12.94L6.5 11L10.01 12.94C10.17 13.03 10.35 13.01 10.5 12.9C10.64 12.79 10.71 12.61 10.68 12.43L10.01 8.32L12.85 5.41C12.98 5.28 13.03 5.09 12.97 4.91L12.97 4.91Z" fill="#FFB800" fill-opacity="1.000000" fill-rule="nonzero"/>
	<path id="Vector" d="M31.97 4.91C31.92 4.73 31.77 4.61 31.6 4.58L27.67 3.98L25.91 0.24C25.76 -0.09 25.24 -0.09 25.08 0.24L23.32 3.98L19.39 4.58C19.22 4.61 19.07 4.73 19.02 4.91C18.96 5.09 19.01 5.28 19.14 5.41L21.98 8.32L21.31 12.43C21.28 12.61 21.35 12.79 21.49 12.9C21.64 13.01 21.82 13.03 21.98 12.94L25.5 11L29.01 12.94C29.17 13.03 29.35 13.01 29.5 12.9C29.64 12.79 29.71 12.61 29.68 12.43L29.01 8.32L31.85 5.41C31.98 5.28 32.03 5.09 31.97 4.91L31.97 4.91Z" fill="#FFB800" fill-opacity="1.000000" fill-rule="nonzero"/>
	<path id="Vector" d="M50.97 4.91C50.92 4.73 50.77 4.61 50.6 4.58L46.67 3.98L44.91 0.24C44.76 -0.09 44.24 -0.09 44.08 0.24L42.32 3.98L38.39 4.58C38.22 4.61 38.07 4.73 38.02 4.91C37.96 5.09 38.01 5.28 38.14 5.41L40.98 8.32L40.31 12.43C40.28 12.61 40.35 12.79 40.49 12.9C40.64 13.01 40.82 13.03 40.98 12.94L44.5 11L48.01 12.94C48.17 13.03 48.35 13.01 48.5 12.9C48.64 12.79 48.71 12.61 48.68 12.43L48.01 8.32L50.85 5.41C50.98 5.28 51.03 5.09 50.97 4.91L50.97 4.91Z" fill="#FFB800" fill-opacity="1.000000" fill-rule="nonzero"/>
	<path id="Vector" d="M69.97 4.91C69.92 4.73 69.77 4.61 69.6 4.58L65.67 3.98L63.91 0.24C63.76 -0.09 63.24 -0.09 63.08 0.24L61.32 3.98L57.39 4.58C57.22 4.61 57.07 4.73 57.02 4.91C56.96 5.09 57.01 5.28 57.14 5.41L59.98 8.32L59.31 12.43C59.28 12.61 59.35 12.79 59.49 12.9C59.64 13.01 59.82 13.03 59.98 12.94L63.5 11L67.01 12.94C67.17 13.03 67.35 13.01 67.5 12.9C67.64 12.79 67.71 12.61 67.68 12.43L67.01 8.32L69.85 5.41C69.98 5.28 70.03 5.09 69.97 4.91L69.97 4.91Z" fill="#FFB800" fill-opacity="1.000000" fill-rule="nonzero"/>
	<path id="Vector" d="M87.78 4.46L88.6 4.58C88.77 4.61 88.92 4.73 88.97 4.91L88.97 4.91L88.97 4.91L88.97 4.91C88.99 4.98 89 5.05 88.99 5.13C88.98 5.23 88.93 5.33 88.85 5.41L86.01 8.32L86.68 12.43C86.71 12.61 86.64 12.79 86.5 12.9C86.35 13.01 86.17 13.03 86.01 12.94L82.5 11L78.98 12.94C78.82 13.03 78.64 13.01 78.49 12.9C78.35 12.79 78.28 12.61 78.31 12.43L78.98 8.32L76.14 5.41C76.01 5.28 75.96 5.09 76.02 4.91C76.07 4.73 76.22 4.61 76.39 4.58L80.32 3.98L82.08 0.24C82.24 -0.09 82.76 -0.09 82.91 0.24L84.67 3.98L87.78 4.46ZM87.45 5.42L83.99 4.89L82.5 1.71L81 4.89L77.54 5.42L80.05 7.98L79.47 11.53L82.5 9.86L85.52 11.53L84.94 7.98L87.45 5.42Z" fill="#FFB800" fill-opacity="1.000000" fill-rule="evenodd"/>
</svg>
