<svg width="44.000000" height="44.000000" viewBox="0 0 44 44" fill="none" xmlns="http://www.w3.org/2000/svg" xmlns:xlink="http://www.w3.org/1999/xlink">
	<desc>
			Created with Pixso.
	</desc>
	<defs/>
	<circle id="Ellipse 3" cx="22.000000" cy="22.000000" r="22.000000" fill="#FFFFFF" fill-opacity="1.000000"/>
	<path id="Ellipse 2" d="M29.69 30.56C31.52 28.7 32.74 26.21 32.96 23.41C33.16 20.8 32.49 18.11 30.86 15.82C29.35 13.7 27.1 12.07 24.38 11.37C21.85 10.71 19.09 10.9 16.55 12.11C14.19 13.24 12.2 15.16 11.04 17.72C9.95 20.1 9.66 22.85 10.41 25.56C11.11 28.08 12.66 30.37 14.98 31.97C17.13 33.45 19.79 34.21 22.59 33.94C25.19 33.69 27.72 32.57 29.69 30.56ZM29.35 16.9C30.62 18.68 31.3 20.91 31.11 23.26C30.94 25.44 30.02 27.58 28.37 29.26C26.83 30.82 24.76 31.87 22.41 32.09C20.23 32.3 17.97 31.78 16.03 30.44C14.22 29.2 12.83 27.34 12.2 25.07C11.62 22.95 11.74 20.63 12.72 18.49C13.63 16.5 15.22 14.8 17.35 13.79C19.33 12.85 21.63 12.57 23.92 13.16C26.04 13.71 27.98 14.98 29.35 16.9Z" fill="#FF5C00" fill-opacity="1.000000" fill-rule="evenodd"/>
	<path id="Vector" d="M18.62 17.15L18.86 28.9L27.94 22.83L18.62 17.15Z" fill="#FF5C00" fill-opacity="1.000000" fill-rule="nonzero"/>
</svg>
