<svg width="14.105164" height="11.765137" viewBox="0 0 14.1052 11.7651" fill="none" xmlns="http://www.w3.org/2000/svg" xmlns:xlink="http://www.w3.org/1999/xlink">
	<desc>
			Created with Pixso.
	</desc>
	<defs/>
	<path id="Vector" d="M14.1 1.39C13.58 1.62 13.02 1.78 12.44 1.86C13.03 1.49 13.49 0.9 13.71 0.21C13.15 0.55 12.53 0.8 11.87 0.93C11.34 0.35 10.59 0 9.76 0C8.16 0 6.87 1.33 6.87 2.96C6.87 3.2 6.89 3.42 6.94 3.64C4.54 3.52 2.41 2.33 0.98 0.54C0.73 0.98 0.59 1.49 0.59 2.03C0.59 3.06 1.1 3.97 1.87 4.51C1.4 4.49 0.95 4.35 0.56 4.13C0.56 4.14 0.56 4.16 0.56 4.17C0.56 5.61 1.56 6.81 2.88 7.08C2.64 7.15 2.39 7.19 2.12 7.19C1.93 7.19 1.75 7.17 1.58 7.13C1.94 8.31 3.01 9.17 4.28 9.2C3.29 9.99 2.04 10.47 0.68 10.47C0.45 10.47 0.22 10.46 0 10.43C1.28 11.27 2.8 11.76 4.43 11.76C9.75 11.76 12.67 7.23 12.67 3.31C12.67 3.18 12.66 3.05 12.66 2.92C13.22 2.51 13.71 1.98 14.1 1.39Z" fill="#FFFFFF" fill-opacity="1.000000" fill-rule="nonzero"/>
</svg>
