<svg width="10.187073" height="10.196289" viewBox="0 0 10.1871 10.1963" fill="none" xmlns="http://www.w3.org/2000/svg" xmlns:xlink="http://www.w3.org/1999/xlink">
	<desc>
			Created with Pixso.
	</desc>
	<defs/>
	<path id="Vector" d="M2.97 0C1.33 0 0 1.33 0 2.97L0 7.22C0 8.86 1.33 10.19 2.97 10.19L7.21 10.19C8.85 10.19 10.18 8.86 10.18 7.22L10.18 2.97C10.18 1.33 8.85 0 7.21 0L2.97 0ZM8.14 1.63C8.37 1.63 8.55 1.81 8.55 2.03C8.55 2.26 8.37 2.44 8.14 2.44C7.92 2.44 7.74 2.26 7.74 2.03C7.74 1.81 7.92 1.63 8.14 1.63ZM5.09 2.44C6.55 2.44 7.74 3.63 7.74 5.09C7.74 6.56 6.55 7.74 5.09 7.74C3.63 7.74 2.44 6.56 2.44 5.09C2.44 3.63 3.63 2.44 5.09 2.44ZM5.09 3.26C4.08 3.26 3.25 4.08 3.25 5.09C3.25 6.11 4.08 6.93 5.09 6.93C6.1 6.93 6.92 6.11 6.92 5.09C6.92 4.08 6.1 3.26 5.09 3.26Z" fill="#979797" fill-opacity="1.000000" fill-rule="nonzero"/>
</svg>
