<svg width="11.754272" height="11.765137" viewBox="0 0 11.7543 11.7651" fill="none" xmlns="http://www.w3.org/2000/svg" xmlns:xlink="http://www.w3.org/1999/xlink">
	<desc>
			Created with Pixso.
	</desc>
	<defs/>
	<path id="Vector" d="M5.87 0C2.63 0 0 2.64 0 5.91C0 8.87 2.17 11.32 4.99 11.75L4.99 7.47L3.54 7.47L3.54 5.92L4.99 5.92L4.99 4.89C4.99 3.17 5.82 2.42 7.24 2.42C7.91 2.42 8.27 2.47 8.44 2.5L8.44 3.85L7.48 3.85C6.88 3.85 6.67 4.43 6.67 5.07L6.67 5.92L8.43 5.92L8.19 7.47L6.67 7.47L6.67 11.76C9.54 11.37 11.75 8.9 11.75 5.91C11.75 2.64 9.12 0 5.87 0Z" fill="#979797" fill-opacity="1.000000" fill-rule="nonzero"/>
</svg>
