<svg width="14.888733" height="10.196289" viewBox="0 0 14.8887 10.1963" fill="none" xmlns="http://www.w3.org/2000/svg" xmlns:xlink="http://www.w3.org/1999/xlink">
	<desc>
			Created with Pixso.
	</desc>
	<defs/>
	<path id="Vector" d="M14.47 1.75C14.33 1.05 13.67 0.54 12.91 0.38C11.77 0.15 9.67 0 7.39 0C5.11 0 2.97 0.15 1.83 0.38C1.07 0.54 0.41 1.01 0.27 1.75C0.13 2.54 0 3.66 0 5.09C0 6.53 0.13 7.64 0.31 8.44C0.44 9.14 1.1 9.65 1.86 9.81C3.07 10.03 5.14 10.19 7.42 10.19C9.7 10.19 11.77 10.03 12.98 9.81C13.74 9.65 14.4 9.17 14.54 8.44C14.68 7.64 14.85 6.49 14.88 5.09C14.81 3.66 14.64 2.54 14.47 1.75ZM5.52 7.32L5.52 2.86L9.74 5.09L5.52 7.32Z" fill="#979797" fill-opacity="1.000000" fill-rule="nonzero"/>
</svg>
