<svg width="31.445816" height="26.841064" viewBox="0 0 31.4458 26.8411" fill="none" xmlns="http://www.w3.org/2000/svg" xmlns:xlink="http://www.w3.org/1999/xlink">
	<desc>
			Created with Pixso.
	</desc>
	<defs/>
	<path id="Vector" d="M27.48 13.16L17.08 2.75C16.42 2.1 16.42 1.05 17.08 0.46C17.73 -0.13 18.78 -0.19 19.37 0.46L30.95 12.05C31.6 12.7 31.6 13.75 30.95 14.34L18.84 26.38C18.52 26.71 18.12 26.84 17.66 26.84C17.21 26.84 16.81 26.71 16.49 26.38C15.83 25.72 15.83 24.68 16.49 24.09L27.48 13.16Z" fill="#EF6010" fill-opacity="1.000000" fill-rule="nonzero"/>
	<path id="Vector" d="M1.63 11.78L19.3 11.78C20.22 11.78 20.94 12.5 20.94 13.42C20.94 14.33 20.22 15.05 19.3 15.05L1.63 15.05C0.71 15.05 0 14.33 0 13.42C0 12.5 0.71 11.78 1.63 11.78Z" fill="#EF6010" fill-opacity="1.000000" fill-rule="nonzero"/>
</svg>
