<svg width="22.399994" height="4.480225" viewBox="0 0 22.4 4.48022" fill="none" xmlns="http://www.w3.org/2000/svg" xmlns:xlink="http://www.w3.org/1999/xlink">
	<desc>
			Created with Pixso.
	</desc>
	<defs/>
	<path id="Vector" d="M2.24 0C1.64 0 1.07 0.23 0.65 0.65C0.23 1.07 0 1.64 0 2.24C0 2.83 0.23 3.4 0.65 3.82C1.07 4.24 1.64 4.48 2.24 4.48C2.83 4.48 3.4 4.24 3.82 3.82C4.24 3.4 4.48 2.83 4.48 2.24C4.48 1.64 4.24 1.07 3.82 0.65C3.4 0.23 2.83 0 2.24 0ZM11.2 0C10.6 0 10.03 0.23 9.61 0.65C9.19 1.07 8.95 1.64 8.95 2.24C8.95 2.83 9.19 3.4 9.61 3.82C10.03 4.24 10.6 4.48 11.2 4.48C11.79 4.48 12.36 4.24 12.78 3.82C13.2 3.4 13.44 2.83 13.44 2.24C13.44 1.64 13.2 1.07 12.77 0.65C12.35 0.23 11.78 -0.01 11.18 0L11.2 0ZM20.16 0C19.56 0 18.99 0.23 18.57 0.65C18.15 1.07 17.92 1.64 17.92 2.24C17.92 2.83 18.15 3.4 18.57 3.82C18.99 4.24 19.56 4.48 20.16 4.48C20.75 4.48 21.32 4.24 21.74 3.82C22.16 3.4 22.4 2.83 22.4 2.24C22.4 1.64 22.15 1.06 21.73 0.64C21.3 0.22 20.72 -0.01 20.12 0L20.16 0Z" fill="#332D2D" fill-opacity="1.000000" fill-rule="evenodd"/>
</svg>
