<svg width="31.445831" height="26.841064" viewBox="0 0 31.4458 26.8411" fill="none" xmlns="http://www.w3.org/2000/svg" xmlns:xlink="http://www.w3.org/1999/xlink">
	<desc>
			Created with Pixso.
	</desc>
	<defs/>
	<path id="Vector" d="M3.96 13.67L14.36 24.08C15.01 24.73 15.01 25.78 14.36 26.37C13.71 26.96 12.66 27.02 12.07 26.37L0.49 14.79C-0.17 14.13 -0.17 13.08 0.49 12.5L12.59 0.45C12.92 0.13 13.31 0 13.77 0C14.23 0 14.62 0.13 14.95 0.45C15.6 1.11 15.6 2.15 14.95 2.74L3.96 13.67Z" fill="#FFFFFF" fill-opacity="1.000000" fill-rule="nonzero"/>
	<path id="Vector" d="M29.8 15.05L12.13 15.05C11.22 15.05 10.5 14.33 10.5 13.41C10.5 12.5 11.22 11.78 12.13 11.78L29.8 11.78C30.72 11.78 31.44 12.5 31.44 13.41C31.44 14.33 30.72 15.05 29.8 15.05Z" fill="#FFFFFF" fill-opacity="1.000000" fill-rule="nonzero"/>
</svg>
