<svg width="15.191139" height="18.000000" viewBox="0 0 15.1911 18" fill="none" xmlns="http://www.w3.org/2000/svg" xmlns:xlink="http://www.w3.org/1999/xlink">
	<desc>
			Created with Pixso.
	</desc>
	<defs/>
	<path id="Vector" d="M5.34 18L9.85 18C12.79 18 15.19 15.6 15.19 12.65C15.19 11.41 14.59 9.96 13.59 8.77L10.35 4.93L12.38 1.11C12.43 1 12.42 0.87 12.35 0.77C12.28 0.67 12.15 0.62 12.03 0.64L9.07 1.22L7.81 0.08C7.68 -0.03 7.5 -0.03 7.38 0.08L6.11 1.22L3.15 0.64C3.03 0.62 2.91 0.67 2.83 0.77C2.76 0.87 2.75 1 2.81 1.11L4.84 4.93L1.59 8.77C0.59 9.96 0 11.41 0 12.65C0 15.6 2.39 18 5.34 18L5.34 18ZM3.69 1.4L6.15 1.88C6.25 1.9 6.35 1.87 6.42 1.81L7.59 0.75L8.76 1.81C8.83 1.87 8.94 1.9 9.04 1.88L11.49 1.4L9.85 4.5C9.84 4.5 9.84 4.49 9.83 4.49L5.35 4.49C5.34 4.49 5.34 4.5 5.33 4.5L3.69 1.4ZM2.08 9.19L5.5 5.14L9.68 5.14L13.1 9.19C13.99 10.24 14.54 11.57 14.54 12.65C14.54 15.24 12.44 17.35 9.85 17.35L5.34 17.35C2.75 17.35 0.64 15.24 0.64 12.65C0.64 11.57 1.19 10.24 2.08 9.19L2.08 9.19Z" fill="#000000" fill-opacity="1.000000" fill-rule="nonzero"/>
	<path id="Vector" d="M7.01 11.69L7.95 12.03C8.48 12.23 8.76 12.82 8.56 13.35C8.42 13.76 8.03 14.04 7.59 14.04L7.59 14.04C7.3 14.04 7.03 13.92 6.83 13.72C6.73 13.62 6.65 13.51 6.6 13.38C6.53 13.22 6.34 13.15 6.18 13.21C6.02 13.28 5.94 13.47 6.01 13.64C6.09 13.83 6.22 14.01 6.37 14.17C6.62 14.42 6.93 14.58 7.27 14.65L7.27 15.42C7.27 15.6 7.41 15.74 7.59 15.74C7.77 15.74 7.91 15.6 7.91 15.42L7.91 14.64C8.48 14.53 8.97 14.13 9.17 13.57C9.32 13.15 9.3 12.7 9.11 12.29C8.92 11.89 8.59 11.58 8.17 11.43L7.23 11.09C6.7 10.89 6.42 10.3 6.62 9.77C6.76 9.36 7.16 9.09 7.59 9.09L7.59 9.09C7.88 9.09 8.15 9.2 8.35 9.4C8.45 9.5 8.53 9.61 8.58 9.74C8.65 9.9 8.84 9.97 9.01 9.91C9.17 9.84 9.24 9.65 9.17 9.48C9.08 9.28 8.96 9.1 8.81 8.95C8.56 8.7 8.25 8.54 7.91 8.47L7.91 7.7C7.91 7.53 7.77 7.38 7.59 7.38C7.41 7.38 7.27 7.53 7.27 7.7L7.27 8.48C6.7 8.59 6.22 8.99 6.01 9.55C5.86 9.97 5.88 10.42 6.07 10.83C6.26 11.23 6.59 11.54 7.01 11.69L7.01 11.69Z" fill="#000000" fill-opacity="1.000000" fill-rule="nonzero"/>
</svg>
