<svg width="12.245811" height="17.680176" viewBox="0 0 12.2458 17.6802" fill="none" xmlns="http://www.w3.org/2000/svg" xmlns:xlink="http://www.w3.org/1999/xlink">
	<desc>
			Created with Pixso.
	</desc>
	<defs/>
	<path id="Vector" d="M6.12 0C2.73 0 0 2.85 0 6.34C0 7.61 0.36 8.57 0.97 9.54L5.93 17.57L5.93 17.57C5.97 17.64 6.04 17.68 6.12 17.68C6.2 17.68 6.27 17.64 6.31 17.57L11.27 9.54C11.87 8.57 12.24 7.61 12.24 6.34C12.24 2.85 9.5 0 6.12 0L6.12 0ZM6.12 0.45C9.25 0.45 11.79 3.08 11.79 6.34C11.79 7.52 11.46 8.37 10.89 9.31L6.12 17.02L1.35 9.31C0.77 8.37 0.45 7.52 0.45 6.34C0.45 3.08 2.99 0.45 6.12 0.45L6.12 0.45ZM6.12 3.17C4.49 3.17 3.17 4.49 3.17 6.12C3.17 7.74 4.49 9.07 6.12 9.07C7.74 9.07 9.07 7.74 9.07 6.12C9.07 4.49 7.74 3.17 6.12 3.17ZM6.12 3.62C7.5 3.62 8.61 4.74 8.61 6.12C8.61 7.5 7.5 8.61 6.12 8.61C4.74 8.61 3.62 7.5 3.62 6.12C3.62 4.74 4.74 3.62 6.12 3.62Z" fill="#000000" fill-opacity="1.000000" fill-rule="nonzero"/>
</svg>
