<svg width="15.847992" height="15.848145" viewBox="0 0 15.848 15.8481" fill="none" xmlns="http://www.w3.org/2000/svg" xmlns:xlink="http://www.w3.org/1999/xlink">
	<desc>
			Created with Pixso.
	</desc>
	<defs/>
	<path id="Vector" d="M7.92 0C3.56 0 0 3.56 0 7.92C0 12.28 3.56 15.84 7.92 15.84C12.28 15.84 15.84 12.28 15.84 7.92C15.84 3.56 12.28 0 7.92 0ZM11.62 6.27L7.36 10.33C7.26 10.43 7.14 10.47 7.01 10.47C6.87 10.47 6.75 10.43 6.64 10.33L4.21 7.88C4.01 7.69 4.01 7.36 4.21 7.16C4.4 6.95 4.73 6.95 4.93 7.16L7.01 9.26L10.92 5.53C11.13 5.35 11.44 5.35 11.64 5.55C11.83 5.76 11.83 6.07 11.62 6.27L11.62 6.27Z" fill="#FF5C00" fill-opacity="1.000000" fill-rule="nonzero"/>
</svg>
