<svg width="14.000000" height="14.000000" viewBox="0 0 14 14" fill="none" xmlns="http://www.w3.org/2000/svg" xmlns:xlink="http://www.w3.org/1999/xlink">
	<desc>
			Created with Pixso.
	</desc>
	<defs/>
	<path id="Vector" d="M5.94 0C4.04 0 2.25 0.91 1.13 2.45C0.01 3.99 -0.3 5.97 0.29 7.78C0.88 9.6 2.29 11.02 4.11 11.6C5.92 12.19 7.9 11.88 9.44 10.76L12.4 13.72C12.64 13.96 12.98 14.05 13.3 13.96C13.63 13.88 13.88 13.63 13.96 13.3C14.05 12.98 13.96 12.64 13.72 12.4L10.76 9.44C11.62 8.25 12.02 6.78 11.86 5.32C11.71 3.85 11.02 2.5 9.92 1.52C8.83 0.53 7.41 -0.01 5.94 1.43e-5L5.94 0ZM5.94 10.03C4.86 10.03 3.82 9.6 3.05 8.83C2.29 8.07 1.86 7.03 1.86 5.94C1.86 4.86 2.29 3.82 3.05 3.06C3.82 2.29 4.86 1.86 5.94 1.86C7.02 1.86 8.06 2.29 8.83 3.06C9.59 3.82 10.02 4.86 10.02 5.94C10.02 7.03 9.59 8.07 8.83 8.83C8.06 9.6 7.02 10.03 5.94 10.03Z" fill="#FF5C00" fill-opacity="1.000000" fill-rule="nonzero"/>
</svg>
